<?xml version="1.0" encoding="UTF-8" standalone="no"?>
<svg
   width="16"
   height="16"
   version="1.1"
   id="svg134"
   sodipodi:docname="fly_camera.svg"
   inkscape:version="1.2.2 (732a01da63, 2022-12-09)"
   xmlns:inkscape="http://www.inkscape.org/namespaces/inkscape"
   xmlns:sodipodi="http://sodipodi.sourceforge.net/DTD/sodipodi-0.dtd"
   xmlns="http://www.w3.org/2000/svg"
   xmlns:svg="http://www.w3.org/2000/svg">
  <defs
     id="defs138" />
  <sodipodi:namedview
     id="namedview136"
     pagecolor="#ffffff"
     bordercolor="#666666"
     borderopacity="1.0"
     inkscape:showpageshadow="2"
     inkscape:pageopacity="0.0"
     inkscape:pagecheckerboard="0"
     inkscape:deskcolor="#d1d1d1"
     showgrid="true"
     inkscape:zoom="32"
     inkscape:cx="2.625"
     inkscape:cy="7.671875"
     inkscape:window-width="1920"
     inkscape:window-height="1019"
     inkscape:window-x="-9"
     inkscape:window-y="-9"
     inkscape:window-maximized="1"
     inkscape:current-layer="layer2">
    <inkscape:grid
       type="xygrid"
       id="grid308" />
  </sodipodi:namedview>
  <g
     inkscape:groupmode="layer"
     id="layer2"
     inkscape:label="Layer 2">
    <path
       style="fill:#fc7f7f;fill-opacity:1;fill-rule:evenodd;stroke:none;stroke-width:1px;stroke-linecap:butt;stroke-linejoin:miter;stroke-opacity:1"
       d="m 3,10 -2,2 c -0.003906,0.519531 0.4687424,0.996094 1,1 L 4,11 C 4,10.46875 3.5117188,10.003906 3,10 Z"
       id="path14405"
       sodipodi:nodetypes="ccccc" />
    <path
       style="fill:#fc7f7f;fill-opacity:1;fill-rule:evenodd;stroke:none;stroke-width:1px;stroke-linecap:butt;stroke-linejoin:miter;stroke-opacity:1"
       d="m 7,11 -3,3 c 0,0.558594 0.4648437,1 1,1 L 8,12 C 7.9921875,11.449219 7.5195312,11 7,11 Z"
       id="path14407"
       sodipodi:nodetypes="ccccc" />
    <path
       style="fill:#fc7f7f;fill-opacity:1;fill-rule:evenodd;stroke:none;stroke-width:1px;stroke-linecap:butt;stroke-linejoin:miter;stroke-opacity:1"
       d="m 11,12 -2,2 c 0,0.527344 0.5195313,1.003906 1,1 l 2,-2 c 0,-0.515625 -0.476562,-1 -1,-1 z"
       id="path14411"
       sodipodi:nodetypes="ccccc" />
    <path
       fill="#fc7f7f"
       d="M 11.138701,0.75495528 C 9.6199087,0.34348987 8.0412937,1.175426 7.5221826,2.6608742 6.5016104,1.0517042 4.2589492,0.78937193 2.8945438,2.1195486 1.5301383,3.4497251 1.7354189,5.6983262 3.3181454,6.7594447 L 3.0137742,7.8953734 C 2.8708323,8.4288398 3.1874149,8.9771765 3.720881,9.1201183 l 5.7955549,1.5529137 c 0.5334661,0.142942 1.0818031,-0.17364 1.2247451,-0.7071062 L 11,9 13.380139,11.708309 14.933053,5.9127538 11.517638,7.0681483 11.716929,6.3243854 C 14.164193,5.0783219 13.789747,1.4717031 11.138701,0.75495528 Z"
       id="path14413"
       sodipodi:nodetypes="ccscsssscccccc"
       style="display:inline" />
  </g>
</svg>
