# Blender 5.0.0
# www.blender.org
mtllib mesh_retro_crate.mtl
o Crate
v -1.000000 -1.000000 1.000000
v -1.000000 1.000000 1.000000
v -1.000000 -1.000000 -1.000000
v -1.000000 1.000000 -1.000000
v 1.000000 -1.000000 1.000000
v 1.000000 1.000000 1.000000
v 1.000000 -1.000000 -1.000000
v 1.000000 1.000000 -1.000000
v -1.000000 -0.697393 0.697393
v -1.000000 0.697393 0.697393
v -1.000000 0.697393 -0.697393
v -1.000000 -0.697393 -0.697393
v -0.697393 -0.697393 -1.000000
v -0.697393 0.697393 -1.000000
v 0.697393 0.697393 -1.000000
v 0.697393 -0.697393 -1.000000
v 1.000000 -0.697393 -0.697393
v 1.000000 0.697393 -0.697393
v 1.000000 0.697393 0.697393
v 1.000000 -0.697393 0.697393
v 0.697393 -0.697393 1.000000
v 0.697393 0.697393 1.000000
v -0.697393 0.697393 1.000000
v -0.697393 -0.697393 1.000000
v -0.697393 -1.000000 -0.697393
v 0.697393 -1.000000 -0.697393
v 0.697393 -1.000000 0.697393
v -0.697393 -1.000000 0.697393
v 0.697393 1.000000 -0.697393
v -0.697393 1.000000 -0.697393
v -0.697393 1.000000 0.697393
v 0.697393 1.000000 0.697393
v -0.878464 -0.697393 0.697393
v -0.878464 0.697393 0.697393
v -0.878464 -0.697393 -0.697393
v -0.878464 0.697393 -0.697393
v -0.697393 0.697393 -0.878464
v -0.697393 -0.697393 -0.878464
v 0.697393 -0.697393 -0.878464
v 0.697393 0.697393 -0.878464
v 0.878464 0.697393 -0.697393
v 0.878464 -0.697393 -0.697393
v 0.878464 -0.697393 0.697393
v 0.878464 0.697393 0.697393
v 0.697393 0.697393 0.878464
v 0.697393 -0.697393 0.878464
v -0.697393 -0.697393 0.878464
v -0.697393 0.697393 0.878464
v 0.697393 -0.878464 -0.697393
v -0.697393 -0.878464 -0.697393
v -0.697393 -0.878464 0.697393
v 0.697393 -0.878464 0.697393
v -0.697393 0.878464 -0.697393
v 0.697393 0.878464 -0.697393
v 0.697393 0.878464 0.697393
v -0.697393 0.878464 0.697393
v -1.000000 -1.000000 0.000000
v -1.000000 0.000000 1.000000
v -1.000000 1.000000 -0.000000
v -1.000000 -0.000000 -1.000000
v 0.000000 -1.000000 -1.000000
v 0.000000 1.000000 -1.000000
v 1.000000 -0.000000 -1.000000
v 1.000000 -1.000000 0.000000
v 1.000000 1.000000 -0.000000
v 1.000000 0.000000 1.000000
v 0.000000 -1.000000 1.000000
v 0.000000 1.000000 1.000000
v -1.000000 0.000000 0.697393
v -1.000000 -0.697393 0.000000
v -1.000000 0.697393 -0.000000
v -1.000000 -0.000000 -0.697393
v -1.000000 -0.848697 0.848697
v -1.000000 0.848697 0.848697
v -1.000000 0.848697 -0.848697
v -1.000000 -0.848697 -0.848697
v -0.697393 -0.000000 -1.000000
v 0.000000 -0.697393 -1.000000
v 0.000000 0.697393 -1.000000
v 0.697393 -0.000000 -1.000000
v -0.848697 -0.848697 -1.000000
v -0.848697 0.848697 -1.000000
v 0.848697 0.848697 -1.000000
v 0.848697 -0.848697 -1.000000
v 1.000000 -0.000000 -0.697393
v 1.000000 -0.697393 0.000000
v 1.000000 0.697393 -0.000000
v 1.000000 0.000000 0.697393
v 1.000000 -0.848697 -0.848697
v 1.000000 0.848697 -0.848697
v 1.000000 0.848697 0.848697
v 1.000000 -0.848697 0.848697
v 0.697393 0.000000 1.000000
v 0.000000 -0.697393 1.000000
v 0.000000 0.697393 1.000000
v -0.697393 0.000000 1.000000
v 0.848697 -0.848697 1.000000
v 0.848697 0.848697 1.000000
v -0.848697 0.848697 1.000000
v -0.848697 -0.848697 1.000000
v 0.000000 -1.000000 -0.697393
v -0.697393 -1.000000 0.000000
v 0.697393 -1.000000 0.000000
v 0.000000 -1.000000 0.697393
v -0.848697 -1.000000 -0.848697
v 0.848697 -1.000000 -0.848697
v 0.848697 -1.000000 0.848697
v -0.848697 -1.000000 0.848697
v 0.000000 1.000000 -0.697393
v 0.697393 1.000000 -0.000000
v -0.697393 1.000000 -0.000000
v 0.000000 1.000000 0.697393
v 0.848697 1.000000 -0.848697
v -0.848697 1.000000 -0.848697
v -0.848697 1.000000 0.848697
v 0.848697 1.000000 0.848697
v -0.878464 0.000000 0.697393
v -0.878464 -0.697393 0.000000
v -0.878464 0.697393 -0.000000
v -0.878464 -0.000000 -0.697393
v -0.697393 -0.000000 -0.878464
v 0.000000 -0.697393 -0.878464
v 0.000000 0.697393 -0.878464
v 0.697393 -0.000000 -0.878464
v 0.878464 -0.000000 -0.697393
v 0.878464 -0.697393 0.000000
v 0.878464 0.697393 -0.000000
v 0.878464 0.000000 0.697393
v 0.697393 0.000000 0.878464
v 0.000000 -0.697393 0.878464
v 0.000000 0.697393 0.878464
v -0.697393 0.000000 0.878464
v 0.000000 -0.878464 -0.697393
v -0.697393 -0.878464 0.000000
v 0.697393 -0.878464 0.000000
v 0.000000 -0.878464 0.697393
v 0.000000 0.878464 -0.697393
v 0.697393 0.878464 -0.000000
v -0.697393 0.878464 -0.000000
v 0.000000 0.878464 0.697393
v -0.939232 0.697393 0.697393
v -0.939232 -0.697393 0.697393
v -0.697393 0.697393 -0.939232
v -0.697393 -0.697393 -0.939232
v -0.939232 -0.697393 -0.697393
v 0.939232 0.697393 -0.697393
v 0.939232 -0.697393 -0.697393
v 0.697393 -0.697393 -0.939232
v 0.697393 0.697393 0.939232
v 0.697393 -0.697393 0.939232
v -0.939232 0.697393 -0.697393
v 0.939232 -0.697393 0.697393
v 0.697393 -0.939232 -0.697393
v -0.697393 -0.939232 -0.697393
v 0.697393 0.697393 -0.939232
v -0.697393 -0.697393 0.939232
v -0.697393 0.939232 -0.697393
v 0.697393 0.939232 -0.697393
v 0.939232 0.697393 0.697393
v -0.697393 -0.939232 0.697393
v -0.697393 0.697393 0.939232
v 0.697393 0.939232 0.697393
v 0.697393 -0.939232 0.697393
v -0.697393 0.939232 0.697393
v 0.697393 0.000000 0.939232
v 0.000000 -0.697393 -0.939232
v 0.939232 -0.000000 -0.697393
v -0.939232 -0.697393 0.000000
v -0.697393 -0.000000 -0.939232
v -0.939232 0.000000 0.697393
v -1.000000 0.000000 0.848697
v -1.000000 0.848697 -0.000000
v -1.000000 -0.000000 -0.848697
v -1.000000 -0.848697 0.000000
v -0.848697 -0.000000 -1.000000
v 0.000000 0.848697 -1.000000
v 0.848697 -0.000000 -1.000000
v 0.000000 -0.848697 -1.000000
v 1.000000 -0.000000 -0.848697
v 1.000000 0.848697 -0.000000
v 1.000000 0.000000 0.848697
v 1.000000 -0.848697 0.000000
v 0.848697 0.000000 1.000000
v 0.000000 0.848697 1.000000
v -0.848697 0.000000 1.000000
v 0.000000 -0.848697 1.000000
v 0.000000 -1.000000 -0.848697
v 0.848697 -1.000000 0.000000
v 0.000000 -1.000000 0.848697
v -0.848697 -1.000000 0.000000
v 0.000000 1.000000 -0.848697
v -0.848697 1.000000 -0.000000
v 0.000000 1.000000 0.848697
v 0.848697 1.000000 -0.000000
v -0.878464 0.000000 0.000000
v 0.000000 -0.000000 -0.878464
v 0.878464 0.000000 0.000000
v 0.000000 0.000000 0.878464
v 0.000000 -0.878464 0.000000
v 0.000000 0.878464 -0.000000
v -0.939232 0.697393 -0.000000
v 0.939232 -0.697393 0.000000
v 0.000000 -0.939232 -0.697393
v 0.000000 0.697393 -0.939232
v 0.000000 -0.697393 0.939232
v 0.000000 0.939232 -0.697393
v -0.939232 -0.000000 -0.697393
v 0.939232 0.697393 -0.000000
v -0.697393 -0.939232 0.000000
v 0.697393 -0.000000 -0.939232
v 0.000000 0.697393 0.939232
v 0.697393 0.939232 -0.000000
v 0.939232 0.000000 0.697393
v 0.697393 -0.939232 0.000000
v -0.697393 0.000000 0.939232
v -0.697393 0.939232 -0.000000
v 0.000000 -0.939232 0.697393
v 0.000000 0.939232 0.697393
vn -1.0000 -0.0000 -0.0000
vn -0.0000 1.0000 -0.0000
vn -0.0000 -0.0000 1.0000
vn 1.0000 -0.0000 -0.0000
vn -0.0000 -0.0000 -1.0000
vn -0.0000 -1.0000 -0.0000
vt 0.049872 0.186084
vt 0.049872 0.500000
vt 0.077225 0.500000
vt 0.077225 0.186084
vt 0.049872 0.813916
vt 0.077225 0.813916
vt 0.104579 0.813916
vt 0.104579 0.500000
vt 0.104579 0.186084
vt 0.813916 0.950128
vt 0.500000 0.950128
vt 0.500000 0.922775
vt 0.813916 0.922775
vt 0.186084 0.950128
vt 0.186084 0.922775
vt 0.186084 0.895422
vt 0.500000 0.895422
vt 0.813916 0.895422
vt 0.950128 0.186084
vt 0.950128 0.500000
vt 0.922775 0.500000
vt 0.922775 0.186084
vt 0.950128 0.813916
vt 0.922775 0.813916
vt 0.895422 0.813916
vt 0.895422 0.500000
vt 0.895422 0.186084
vt 0.000000 0.000000
vt 0.000000 0.500000
vt 0.075652 0.500000
vt 0.075652 0.075652
vt 0.000000 1.000000
vt 0.075652 0.924348
vt 0.151303 0.848697
vt 0.151303 0.500000
vt 0.151303 0.151303
vt 0.500000 1.000000
vt 0.500000 0.924348
vt 1.000000 1.000000
vt 0.924348 0.924348
vt 0.848697 0.848697
vt 0.500000 0.848697
vt 1.000000 0.500000
vt 0.924348 0.500000
vt 1.000000 0.000000
vt 0.924348 0.075652
vt 0.848697 0.151303
vt 0.848697 0.500000
vt 0.500000 0.000000
vt 0.500000 0.075652
vt 0.500000 0.151303
vt 0.500000 0.500000
vt 0.186084 0.049872
vt 0.500000 0.049872
vt 0.500000 0.077225
vt 0.186084 0.077225
vt 0.813916 0.049872
vt 0.813916 0.077225
vt 0.813916 0.104579
vt 0.500000 0.104579
vt 0.186084 0.104579
s 1
usemtl Crate
f 21/1/1 93/2/1 165/3/1 150/4/1
f 93/2/1 22/5/1 149/6/1 165/3/1
f 165/3/1 149/6/1 45/7/1 129/8/1
f 150/4/1 165/3/1 129/8/1 46/9/1
f 16/10/2 78/11/2 166/12/2 148/13/2
f 78/11/2 13/14/2 144/15/2 166/12/2
f 166/12/2 144/15/2 38/16/2 122/17/2
f 148/13/2 166/12/2 122/17/2 39/18/2
f 17/19/3 85/20/3 167/21/3 147/22/3
f 85/20/3 18/23/3 146/24/3 167/21/3
f 167/21/3 146/24/3 41/25/3 125/26/3
f 147/22/3 167/21/3 125/26/3 42/27/3
f 12/5/2 70/2/2 168/3/2 145/6/2
f 70/2/2 9/1/2 142/4/2 168/3/2
f 168/3/2 142/4/2 33/9/2 118/8/2
f 145/6/2 168/3/2 118/8/2 35/7/2
f 13/19/4 77/20/4 169/21/4 144/22/4
f 77/20/4 14/23/4 143/24/4 169/21/4
f 169/21/4 143/24/4 37/25/4 121/26/4
f 144/22/4 169/21/4 121/26/4 38/27/4
f 9/1/5 69/2/5 170/3/5 142/4/5
f 69/2/5 10/5/5 141/6/5 170/3/5
f 170/3/5 141/6/5 34/7/5 117/8/5
f 142/4/5 170/3/5 117/8/5 33/9/5
f 1/28/1 58/29/1 171/30/1 73/31/1
f 58/29/1 2/32/1 74/33/1 171/30/1
f 171/30/1 74/33/1 10/34/1 69/35/1
f 73/31/1 171/30/1 69/35/1 9/36/1
f 2/32/1 59/37/1 172/38/1 74/33/1
f 59/37/1 4/39/1 75/40/1 172/38/1
f 172/38/1 75/40/1 11/41/1 71/42/1
f 74/33/1 172/38/1 71/42/1 10/34/1
f 4/39/1 60/43/1 173/44/1 75/40/1
f 60/43/1 3/45/1 76/46/1 173/44/1
f 173/44/1 76/46/1 12/47/1 72/48/1
f 75/40/1 173/44/1 72/48/1 11/41/1
f 3/45/1 57/49/1 174/50/1 76/46/1
f 57/49/1 1/28/1 73/31/1 174/50/1
f 174/50/1 73/31/1 9/36/1 70/51/1
f 76/46/1 174/50/1 70/51/1 12/47/1
f 3/28/5 60/29/5 175/30/5 81/31/5
f 60/29/5 4/32/5 82/33/5 175/30/5
f 175/30/5 82/33/5 14/34/5 77/35/5
f 81/31/5 175/30/5 77/35/5 13/36/5
f 4/32/5 62/37/5 176/38/5 82/33/5
f 62/37/5 8/39/5 83/40/5 176/38/5
f 176/38/5 83/40/5 15/41/5 79/42/5
f 82/33/5 176/38/5 79/42/5 14/34/5
f 8/39/5 63/43/5 177/44/5 83/40/5
f 63/43/5 7/45/5 84/46/5 177/44/5
f 177/44/5 84/46/5 16/47/5 80/48/5
f 83/40/5 177/44/5 80/48/5 15/41/5
f 7/45/5 61/49/5 178/50/5 84/46/5
f 61/49/5 3/28/5 81/31/5 178/50/5
f 178/50/5 81/31/5 13/36/5 78/51/5
f 84/46/5 178/50/5 78/51/5 16/47/5
f 7/45/4 63/43/4 179/44/4 89/46/4
f 63/43/4 8/39/4 90/40/4 179/44/4
f 179/44/4 90/40/4 18/41/4 85/48/4
f 89/46/4 179/44/4 85/48/4 17/47/4
f 8/39/4 65/37/4 180/38/4 90/40/4
f 65/37/4 6/32/4 91/33/4 180/38/4
f 180/38/4 91/33/4 19/34/4 87/42/4
f 90/40/4 180/38/4 87/42/4 18/41/4
f 6/32/4 66/29/4 181/30/4 91/33/4
f 66/29/4 5/28/4 92/31/4 181/30/4
f 181/30/4 92/31/4 20/36/4 88/35/4
f 91/33/4 181/30/4 88/35/4 19/34/4
f 5/28/4 64/49/4 182/50/4 92/31/4
f 64/49/4 7/45/4 89/46/4 182/50/4
f 182/50/4 89/46/4 17/47/4 86/51/4
f 92/31/4 182/50/4 86/51/4 20/36/4
f 5/45/3 66/43/3 183/44/3 97/46/3
f 66/43/3 6/39/3 98/40/3 183/44/3
f 183/44/3 98/40/3 22/41/3 93/48/3
f 97/46/3 183/44/3 93/48/3 21/47/3
f 6/39/3 68/37/3 184/38/3 98/40/3
f 68/37/3 2/32/3 99/33/3 184/38/3
f 184/38/3 99/33/3 23/34/3 95/42/3
f 98/40/3 184/38/3 95/42/3 22/41/3
f 2/32/3 58/29/3 185/30/3 99/33/3
f 58/29/3 1/28/3 100/31/3 185/30/3
f 185/30/3 100/31/3 24/36/3 96/35/3
f 99/33/3 185/30/3 96/35/3 23/34/3
f 1/28/3 67/49/3 186/50/3 100/31/3
f 67/49/3 5/45/3 97/46/3 186/50/3
f 186/50/3 97/46/3 21/47/3 94/51/3
f 100/31/3 186/50/3 94/51/3 24/36/3
f 3/32/6 61/37/6 187/38/6 105/33/6
f 61/37/6 7/39/6 106/40/6 187/38/6
f 187/38/6 106/40/6 26/41/6 101/42/6
f 105/33/6 187/38/6 101/42/6 25/34/6
f 7/39/6 64/43/6 188/44/6 106/40/6
f 64/43/6 5/45/6 107/46/6 188/44/6
f 188/44/6 107/46/6 27/47/6 103/48/6
f 106/40/6 188/44/6 103/48/6 26/41/6
f 5/45/6 67/49/6 189/50/6 107/46/6
f 67/49/6 1/28/6 108/31/6 189/50/6
f 189/50/6 108/31/6 28/36/6 104/51/6
f 107/46/6 189/50/6 104/51/6 27/47/6
f 1/28/6 57/29/6 190/30/6 108/31/6
f 57/29/6 3/32/6 105/33/6 190/30/6
f 190/30/6 105/33/6 25/34/6 102/35/6
f 108/31/6 190/30/6 102/35/6 28/36/6
f 8/39/2 62/37/2 191/38/2 113/40/2
f 62/37/2 4/32/2 114/33/2 191/38/2
f 191/38/2 114/33/2 30/34/2 109/42/2
f 113/40/2 191/38/2 109/42/2 29/41/2
f 4/32/2 59/29/2 192/30/2 114/33/2
f 59/29/2 2/28/2 115/31/2 192/30/2
f 192/30/2 115/31/2 31/36/2 111/35/2
f 114/33/2 192/30/2 111/35/2 30/34/2
f 2/28/2 68/49/2 193/50/2 115/31/2
f 68/49/2 6/45/2 116/46/2 193/50/2
f 193/50/2 116/46/2 32/47/2 112/51/2
f 115/31/2 193/50/2 112/51/2 31/36/2
f 6/45/2 65/43/2 194/44/2 116/46/2
f 65/43/2 8/39/2 113/40/2 194/44/2
f 194/44/2 113/40/2 29/41/2 110/48/2
f 116/46/2 194/44/2 110/48/2 32/47/2
f 33/36/1 117/35/1 195/52/1 118/51/1
f 117/35/1 34/34/1 119/42/1 195/52/1
f 195/52/1 119/42/1 36/41/1 120/48/1
f 118/51/1 195/52/1 120/48/1 35/47/1
f 38/36/5 121/35/5 196/52/5 122/51/5
f 121/35/5 37/34/5 123/42/5 196/52/5
f 196/52/5 123/42/5 40/41/5 124/48/5
f 122/51/5 196/52/5 124/48/5 39/47/5
f 42/47/4 125/48/4 197/52/4 126/51/4
f 125/48/4 41/41/4 127/42/4 197/52/4
f 197/52/4 127/42/4 44/34/4 128/35/4
f 126/51/4 197/52/4 128/35/4 43/36/4
f 46/47/3 129/48/3 198/52/3 130/51/3
f 129/48/3 45/41/3 131/42/3 198/52/3
f 198/52/3 131/42/3 48/34/3 132/35/3
f 130/51/3 198/52/3 132/35/3 47/36/3
f 50/34/6 133/42/6 199/52/6 134/35/6
f 133/42/6 49/41/6 135/48/6 199/52/6
f 199/52/6 135/48/6 52/47/6 136/51/6
f 134/35/6 199/52/6 136/51/6 51/36/6
f 54/41/2 137/42/2 200/52/2 138/48/2
f 137/42/2 53/34/2 139/35/2 200/52/2
f 200/52/2 139/35/2 56/36/2 140/51/2
f 138/48/2 200/52/2 140/51/2 55/47/2
f 10/1/6 71/2/6 201/3/6 141/4/6
f 71/2/6 11/5/6 151/6/6 201/3/6
f 201/3/6 151/6/6 36/7/6 119/8/6
f 141/4/6 201/3/6 119/8/6 34/9/6
f 20/19/2 86/20/2 202/21/2 152/22/2
f 86/20/2 17/23/2 147/24/2 202/21/2
f 202/21/2 147/24/2 42/25/2 126/26/2
f 152/22/2 202/21/2 126/26/2 43/27/2
f 25/53/3 101/54/3 203/55/3 154/56/3
f 101/54/3 26/57/3 153/58/3 203/55/3
f 203/55/3 153/58/3 49/59/3 133/60/3
f 154/56/3 203/55/3 133/60/3 50/61/3
f 14/14/6 79/11/6 204/12/6 143/15/6
f 79/11/6 15/10/6 155/13/6 204/12/6
f 204/12/6 155/13/6 40/18/6 123/17/6
f 143/15/6 204/12/6 123/17/6 37/16/6
f 24/53/2 94/54/2 205/55/2 156/56/2
f 94/54/2 21/57/2 150/58/2 205/55/2
f 205/55/2 150/58/2 46/59/2 130/60/2
f 156/56/2 205/55/2 130/60/2 47/61/2
f 29/10/3 109/11/3 206/12/3 158/13/3
f 109/11/3 30/14/3 157/15/3 206/12/3
f 206/12/3 157/15/3 53/16/3 137/17/3
f 158/13/3 206/12/3 137/17/3 54/18/3
f 11/5/3 72/2/3 207/3/3 151/6/3
f 72/2/3 12/1/3 145/4/3 207/3/3
f 207/3/3 145/4/3 35/9/3 120/8/3
f 151/6/3 207/3/3 120/8/3 36/7/3
f 18/23/6 87/20/6 208/21/6 146/24/6
f 87/20/6 19/19/6 159/22/6 208/21/6
f 208/21/6 159/22/6 44/27/6 127/26/6
f 146/24/6 208/21/6 127/26/6 41/25/6
f 28/53/4 102/54/4 209/55/4 160/56/4
f 102/54/4 25/57/4 154/58/4 209/55/4
f 209/55/4 154/58/4 50/59/4 134/60/4
f 160/56/4 209/55/4 134/60/4 51/61/4
f 15/23/1 80/20/1 210/21/1 155/24/1
f 80/20/1 16/19/1 148/22/1 210/21/1
f 210/21/1 148/22/1 39/27/1 124/26/1
f 155/24/1 210/21/1 124/26/1 40/25/1
f 22/57/6 95/54/6 211/55/6 149/58/6
f 95/54/6 23/53/6 161/56/6 211/55/6
f 211/55/6 161/56/6 48/61/6 131/60/6
f 149/58/6 211/55/6 131/60/6 45/59/6
f 32/14/1 110/11/1 212/12/1 162/15/1
f 110/11/1 29/10/1 158/13/1 212/12/1
f 212/12/1 158/13/1 54/18/1 138/17/1
f 162/15/1 212/12/1 138/17/1 55/16/1
f 19/23/5 88/20/5 213/21/5 159/24/5
f 88/20/5 20/19/5 152/22/5 213/21/5
f 213/21/5 152/22/5 43/27/5 128/26/5
f 159/24/5 213/21/5 128/26/5 44/25/5
f 26/57/1 103/54/1 214/55/1 153/58/1
f 103/54/1 27/53/1 163/56/1 214/55/1
f 214/55/1 163/56/1 52/61/1 135/60/1
f 153/58/1 214/55/1 135/60/1 49/59/1
f 23/5/4 96/2/4 215/3/4 161/6/4
f 96/2/4 24/1/4 156/4/4 215/3/4
f 215/3/4 156/4/4 47/9/4 132/8/4
f 161/6/4 215/3/4 132/8/4 48/7/4
f 30/10/4 111/11/4 216/12/4 157/13/4
f 111/11/4 31/14/4 164/15/4 216/12/4
f 216/12/4 164/15/4 56/16/4 139/17/4
f 157/13/4 216/12/4 139/17/4 53/18/4
f 27/57/5 104/54/5 217/55/5 163/58/5
f 104/54/5 28/53/5 160/56/5 217/55/5
f 217/55/5 160/56/5 51/61/5 136/60/5
f 163/58/5 217/55/5 136/60/5 52/59/5
f 31/14/5 112/11/5 218/12/5 164/15/5
f 112/11/5 32/10/5 162/13/5 218/12/5
f 218/12/5 162/13/5 55/18/5 140/17/5
f 164/15/5 218/12/5 140/17/5 56/16/5
